<?xml version="1.0" encoding="UTF-8" standalone="no"?>
<svg
   xmlns:dc="http://purl.org/dc/elements/1.1/"
   xmlns:cc="http://creativecommons.org/ns#"
   xmlns:rdf="http://www.w3.org/1999/02/22-rdf-syntax-ns#"
   xmlns:svg="http://www.w3.org/2000/svg"
   xmlns="http://www.w3.org/2000/svg"
   xmlns:sodipodi="http://sodipodi.sourceforge.net/DTD/sodipodi-0.dtd"
   xmlns:inkscape="http://www.inkscape.org/namespaces/inkscape"
   sodipodi:docname="blue-button.svg"
   inkscape:version="1.0.1 (3bc2e813f5, 2020-09-07)"
   id="svg8"
   version="1.1"
   viewBox="0 0 67.73248 67.73248"
   height="256"
   width="256"
   inkscape:export-filename="/home/dom/code/VTLearn/Source media/Graphics/blue_button.png"
   inkscape:export-xdpi="96"
   inkscape:export-ydpi="96">
  <defs
     id="defs2">
    <linearGradient
       gradientUnits="userSpaceOnUse"
       x1="-819.20001"
       x2="819.20001"
       spreadMethod="pad"
       gradientTransform="matrix(-1.0546078e-4,0.03454898,-0.03119532,-8.4368624e-5,33.866241,31.101649)"
       id="gradient14">
      <stop
         offset="0"
         stop-color="#35BAF3"
         id="stop72" />
      <stop
         offset="1"
         stop-color="#1EA7E1"
         id="stop74" />
    </linearGradient>
  </defs>
  <sodipodi:namedview
     inkscape:window-maximized="1"
     inkscape:window-y="0"
     inkscape:window-x="36"
     inkscape:window-height="1417"
     inkscape:window-width="2524"
     units="px"
     inkscape:showpageshadow="false"
     inkscape:pagecheckerboard="true"
     showgrid="false"
     inkscape:document-rotation="0"
     inkscape:current-layer="layer1"
     inkscape:document-units="px"
     inkscape:cy="174.92188"
     inkscape:cx="97.952824"
     inkscape:zoom="2.4355469"
     inkscape:pageshadow="2"
     inkscape:pageopacity="0.0"
     borderopacity="1.0"
     bordercolor="#666666"
     pagecolor="#ffffff"
     id="base" />
  <metadata
     id="metadata5">
    <rdf:RDF>
      <cc:Work
         rdf:about="">
        <dc:format>image/svg+xml</dc:format>
        <dc:type
           rdf:resource="http://purl.org/dc/dcmitype/StillImage" />
        <dc:title></dc:title>
      </cc:Work>
    </rdf:RDF>
  </metadata>
  <g
     id="layer1"
     inkscape:groupmode="layer"
     inkscape:label="Layer 1">
    <path
       stroke="none"
       fill="#1989b8"
       d="M 0,54.255099 V 8.2937731 Q 0,0 8.2937741,0 H 59.438707 Q 67.73248,0 67.73248,8.2937731 V 54.255099 q -0.20736,7.948199 -8.293773,7.948199 H 8.2937741 Q 0.20734433,62.203298 0,54.255099 M 64.967889,8.2937731 64.898769,6.9805923 Q 64.276736,2.764591 59.438702,2.764591 H 8.2937689 q -4.8380354,0 -5.3909536,4.2160013 L 2.7645857,8.2937731 V 53.909525 q 0,5.529182 5.5291832,5.529182 H 59.438702 q 5.529182,0 5.529182,-5.529182 V 8.2937731"
       id="path772"
       style="stroke-width:0.26458" />
    <path
       stroke="none"
       fill="#35baf3"
       d="M 64.967889,8.2937731 V 53.909525 q 0,5.529182 -5.529182,5.529182 H 8.2937741 q -5.5291831,0 -5.5291831,-5.529182 V 8.2937731 L 2.9028205,6.9805923 Q 3.4557387,2.764591 8.2937741,2.764591 H 59.438707 q 4.838034,0 5.460067,4.2160013 l 0.06912,1.3131808 m -2.764591,0 -0.06912,-0.9676069 0.06912,0.06912 Q 61.719515,5.5291873 59.438707,5.5291873 H 8.2937741 q -2.2807876,0 -2.6263625,1.7969841 l -0.069115,0.27648 -0.069115,0.6911478 V 53.909551 q 0,2.764591 2.7645921,2.764591 H 59.438707 q 2.764591,0 2.764591,-2.764591 V 8.2937992"
       id="path774"
       style="stroke-width:0.26458" />
    <path
       stroke="none"
       fill="url(#gradient14)"
       d="M 62.203298,8.2937731 V 53.909525 q 0,2.764591 -2.764591,2.764591 H 8.2937741 q -2.7645921,0 -2.7645921,-2.764591 V 8.2937731 L 5.598297,7.6026253 5.667412,7.3261453 Q 6.0129855,5.5291611 8.2937741,5.5291611 H 59.438707 q 2.280788,0 2.764591,1.866099 l -0.06912,-0.06912 0.06912,0.9676068"
       id="path776"
       style="fill:url(#gradient14);stroke-width:0.26458" />
    <path
       stroke="none"
       fill="#166e93"
       d="m 67.73248,54.255099 v 5.183608 q 0,8.293773 -8.293773,8.293773 H 8.2937741 Q 0,67.73248 0,59.438707 v -5.183608 q 0.20734433,7.948199 8.2937741,7.948199 H 59.438707 q 8.086429,0 8.293773,-7.948199"
       id="path778"
       style="stroke-width:0.26458" />
  </g>
</svg>
