<?xml version="1.0" encoding="UTF-8" standalone="no"?>
<svg
   xmlns:dc="http://purl.org/dc/elements/1.1/"
   xmlns:cc="http://creativecommons.org/ns#"
   xmlns:rdf="http://www.w3.org/1999/02/22-rdf-syntax-ns#"
   xmlns:svg="http://www.w3.org/2000/svg"
   xmlns="http://www.w3.org/2000/svg"
   xmlns:sodipodi="http://sodipodi.sourceforge.net/DTD/sodipodi-0.dtd"
   xmlns:inkscape="http://www.inkscape.org/namespaces/inkscape"
   sodipodi:docname="blue-button-pressed.svg"
   inkscape:version="1.0.1 (3bc2e813f5, 2020-09-07)"
   id="svg8"
   version="1.1"
   viewBox="0 0 67.73248 67.73248"
   height="256"
   width="256"
   inkscape:export-filename="/home/dom/code/VTLearn/Source media/Graphics/blue_button_pressed.png"
   inkscape:export-xdpi="96"
   inkscape:export-ydpi="96">
  <defs
     id="defs2">
    <linearGradient
       gradientUnits="userSpaceOnUse"
       x1="-819.20001"
       x2="819.20001"
       spreadMethod="pad"
       gradientTransform="matrix(-1.0546078e-4,0.03762,-0.03119532,-9.1868058e-5,33.866449,33.86624)"
       id="gradient15">
      <stop
         offset="0"
         stop-color="#35BAF3"
         id="stop77" />
      <stop
         offset="1"
         stop-color="#1EA7E1"
         id="stop79" />
    </linearGradient>
  </defs>
  <sodipodi:namedview
     inkscape:window-maximized="1"
     inkscape:window-y="0"
     inkscape:window-x="36"
     inkscape:window-height="1417"
     inkscape:window-width="2524"
     units="px"
     inkscape:showpageshadow="false"
     inkscape:pagecheckerboard="true"
     showgrid="false"
     inkscape:document-rotation="0"
     inkscape:current-layer="layer1"
     inkscape:document-units="px"
     inkscape:cy="198.7753"
     inkscape:cx="111.78211"
     inkscape:zoom="2.4355469"
     inkscape:pageshadow="2"
     inkscape:pageopacity="0.0"
     borderopacity="1.0"
     bordercolor="#666666"
     pagecolor="#ffffff"
     id="base" />
  <metadata
     id="metadata5">
    <rdf:RDF>
      <cc:Work
         rdf:about="">
        <dc:format>image/svg+xml</dc:format>
        <dc:type
           rdf:resource="http://purl.org/dc/dcmitype/StillImage" />
        <dc:title></dc:title>
      </cc:Work>
    </rdf:RDF>
  </metadata>
  <g
     id="layer1"
     inkscape:groupmode="layer"
     inkscape:label="Layer 1">
    <path
       stroke="none"
       fill="#1989b8"
       d="M 2.7648,9.0309974 V 58.701483 q 0,6.020665 5.529182,6.020665 h 51.144934 q 5.529182,0 5.529182,-6.020665 V 9.0309974 l -0.06896,-1.429908 Q 64.27695,3.0103325 59.438916,3.0103325 H 8.293982 q -4.8380342,0 -5.390942,4.5907569 L 2.764591,9.0309974 M 8.2937731,0 H 59.438707 Q 67.73248,0 67.73248,9.0309974 V 59.077774 Q 67.525068,67.73248 59.438707,67.73248 H 8.2937731 Q 0.20736,67.73248 0,59.077774 V 9.0309974 Q 0,0 8.2937731,0"
       id="path780"
       style="stroke-width:0.264581" />
    <path
       stroke="none"
       fill="#35baf3"
       d="M 5.598511,8.2784142 5.529548,9.0309974 V 58.701483 q 0,3.010332 2.764591,3.010332 h 51.144934 q 2.764591,0 2.764591,-3.010332 V 9.0309974 l -0.06896,-1.0536164 0.06896,0.075264 Q 61.719876,6.0206706 59.439073,6.0206706 H 8.2941388 q -2.2808033,0 -2.626351,1.9567161 l -0.068963,0.301056 M 2.7651138,9.0310258 2.9035628,7.6011179 Q 3.4564702,3.0103609 8.2945045,3.0103609 H 59.439438 q 4.838035,0 5.460062,4.590757 l 0.06896,1.4299079 V 58.701511 q 0,6.020665 -5.529182,6.020665 H 8.2943478 q -5.5291821,0 -5.5291821,-6.020665 V 9.0310258"
       id="path782"
       style="stroke-width:0.264581" />
    <path
       stroke="none"
       fill="url(#gradient15)"
       d="M 5.598511,8.2784142 5.667474,7.9773582 Q 6.0128131,6.0206421 8.2938253,6.0206421 H 59.438759 q 2.280803,0 2.764591,2.0319744 l -0.06896,-0.075264 0.06896,1.0536164 V 58.701454 q 0,3.010333 -2.764591,3.010333 H 8.2938253 q -2.764591,0 -2.764591,-3.010333 V 9.0309689 l 0.068963,-0.7525831"
       id="path784"
       style="fill:url(#gradient15);stroke-width:0.264581" />
  </g>
</svg>
