<?xml version="1.0" encoding="UTF-8" standalone="no"?>
<svg
   sodipodi:docname="splash.svg"
   inkscape:version="1.1 (c68e22c387, 2021-05-23)"
   id="svg8"
   version="1.1"
   viewBox="0 0 158.748 52.916002"
   height="200"
   width="600"
   inkscape:export-filename="C:\Users\dom\Documents\Unreal Projects\VTLearn\Source media\Graphics\splash.png"
   inkscape:export-xdpi="96"
   inkscape:export-ydpi="96"
   xmlns:inkscape="http://www.inkscape.org/namespaces/inkscape"
   xmlns:sodipodi="http://sodipodi.sourceforge.net/DTD/sodipodi-0.dtd"
   xmlns="http://www.w3.org/2000/svg"
   xmlns:svg="http://www.w3.org/2000/svg"
   xmlns:rdf="http://www.w3.org/1999/02/22-rdf-syntax-ns#"
   xmlns:cc="http://creativecommons.org/ns#"
   xmlns:dc="http://purl.org/dc/elements/1.1/">
  <defs
     id="defs2" />
  <sodipodi:namedview
     inkscape:window-maximized="1"
     inkscape:window-y="-8"
     inkscape:window-x="54"
     inkscape:window-height="1417"
     inkscape:window-width="2498"
     units="px"
     inkscape:showpageshadow="false"
     inkscape:pagecheckerboard="true"
     showgrid="false"
     inkscape:document-rotation="0"
     inkscape:current-layer="svg8"
     inkscape:document-units="px"
     inkscape:cy="169.45204"
     inkscape:cx="282.2537"
     inkscape:zoom="2.0035167"
     inkscape:pageshadow="2"
     inkscape:pageopacity="0.0"
     borderopacity="1.0"
     bordercolor="#666666"
     pagecolor="#ffffff"
     id="base"
     showguides="false"
     inkscape:guide-bbox="true"
     height="200px"
     inkscape:snap-bbox="true"
     inkscape:snap-bbox-midpoints="true"
     inkscape:snap-page="true"
     inkscape:snap-global="true">
    <sodipodi:guide
       position="10.621857,26.606478"
       orientation="1,0"
       id="guide2872" />
  </sodipodi:namedview>
  <metadata
     id="metadata5">
    <rdf:RDF>
      <cc:Work
         rdf:about="">
        <dc:format>image/svg+xml</dc:format>
        <dc:type
           rdf:resource="http://purl.org/dc/dcmitype/StillImage" />
      </cc:Work>
    </rdf:RDF>
  </metadata>
  <path
     style="color:#000000;fill:#000000;stroke-linecap:round;stroke-linejoin:round;-inkscape-stroke:none;paint-order:fill markers stroke"
     d="M 3.6757813,0 C 1.656809,0 0,1.656809 0,3.6757813 V 49.240234 c 0,2.018973 1.656809,3.675782 3.6757813,3.675782 H 155.07227 c 2.01897,0 3.67578,-1.656809 3.67578,-3.675782 V 3.6757813 C 158.74805,1.656809 157.09124,0 155.07227,0 Z m 0,2.0605469 H 155.07227 c 0.91257,0 1.61328,0.702663 1.61328,1.6152344 V 49.240234 c 0,0.912572 -0.70071,1.615235 -1.61328,1.615235 H 3.6757813 c -0.9125714,0 -1.6152344,-0.702663 -1.6152344,-1.615235 V 3.6757813 c 0,-0.9125714 0.702663,-1.6152344 1.6152344,-1.6152344 z"
     id="path4935" />
  <path
     style="color:#000000;fill:#000000;stroke-linecap:round;stroke-linejoin:round;-inkscape-stroke:none;paint-order:fill markers stroke"
     d="M 3.6757813,0 C 1.656809,0 0,1.656809 0,3.6757813 V 49.240234 c 0,2.018973 1.656809,3.675782 3.6757813,3.675782 H 155.07227 c 2.01897,0 3.67578,-1.656809 3.67578,-3.675782 V 3.6757813 C 158.74805,1.656809 157.09124,0 155.07227,0 Z m 0,2.0605469 H 155.07227 c 0.91257,0 1.61328,0.702663 1.61328,1.6152344 V 49.240234 c 0,0.912572 -0.70071,1.615235 -1.61328,1.615235 H 3.6757813 c -0.9125714,0 -1.6152344,-0.702663 -1.6152344,-1.615235 V 3.6757813 c 0,-0.9125714 0.702663,-1.6152344 1.6152344,-1.6152344 z"
     id="path5257" />
  <path
     style="color:#000000;fill:#4d4d4d;stroke-width:2.06148;stroke-linecap:round;stroke-linejoin:round;-inkscape-stroke:none;paint-order:fill markers stroke"
     d="M 3.6765429,1.0307428 H 155.07145 c 1.46577,0 2.6458,1.1800268 2.6458,2.6458001 V 49.239458 c 0,1.465773 -1.18003,2.6458 -2.6458,2.6458 H 3.6765429 c -1.4657733,0 -2.6458001,-1.180027 -2.6458001,-2.6458 V 3.6765429 c 0,-1.4657733 1.1800268,-2.6458001 2.6458001,-2.6458001 z"
     id="path4933" />
  <path
     id="path5260"
     style="color:#000000;fill:#333333;stroke-width:7.79152;stroke-linecap:round;stroke-linejoin:round;-inkscape-stroke:none;paint-order:fill markers stroke"
     d="M 3.8964844 169.60352 L 3.8964844 186.10352 C 3.8964844 191.64351 8.3564841 196.10352 13.896484 196.10352 L 586.10352 196.10352 C 591.6435 196.10352 596.10352 191.64351 596.10352 186.10352 L 596.10352 169.60352 L 3.8964844 169.60352 z "
     transform="scale(0.26458)" />
  <g
     id="layer1"
     inkscape:groupmode="layer"
     inkscape:label="Normal"
     style="display:inline">
    <rect
       style="fill:#b3b3b3;stroke:#000000;stroke-width:2.12241;stroke-linecap:round;stroke-linejoin:round;stroke-miterlimit:4;stroke-dasharray:none;paint-order:fill markers stroke"
       id="rect7"
       width="21.574919"
       height="34.908955"
       x="125.01505"
       y="7.5614214" />
    <rect
       style="fill:#000000;stroke:#000000;stroke-width:2.12241;stroke-linecap:round;stroke-linejoin:round;stroke-miterlimit:4;stroke-dasharray:none;paint-order:fill markers stroke"
       id="rect832"
       width="13.825467"
       height="6.9127336"
       x="128.88977"
       y="15.109986" />
    <g
       id="g856"
       transform="matrix(0.80218311,0,0,0.80218311,68.945681,-94.114523)">
      <g
         id="g842">
        <ellipse
           style="fill:#ffffff;stroke:none;stroke-width:1.3229;stroke-linecap:round;stroke-linejoin:round;stroke-miterlimit:4;stroke-dasharray:none;paint-order:fill markers stroke"
           id="path834"
           cx="79.23011"
           cy="140.44342"
           rx="2.9415417"
           ry="3.6210325" />
        <ellipse
           style="fill:#000000;stroke:none;stroke-width:1.3229;stroke-linecap:round;stroke-linejoin:round;stroke-miterlimit:4;stroke-dasharray:none;paint-order:fill markers stroke"
           id="ellipse838"
           cx="79.23011"
           cy="140.44342"
           rx="0.98264742"
           ry="1.2096372" />
      </g>
      <g
         id="g848"
         transform="translate(8.2269661)">
        <ellipse
           style="fill:#ffffff;stroke:none;stroke-width:1.3229;stroke-linecap:round;stroke-linejoin:round;stroke-miterlimit:4;stroke-dasharray:none;paint-order:fill markers stroke"
           id="ellipse844"
           cx="79.23011"
           cy="140.44342"
           rx="2.9415417"
           ry="3.6210325" />
        <ellipse
           style="fill:#000000;stroke:none;stroke-width:1.3229;stroke-linecap:round;stroke-linejoin:round;stroke-miterlimit:4;stroke-dasharray:none;paint-order:fill markers stroke"
           id="ellipse846"
           cx="79.23011"
           cy="140.44342"
           rx="0.98264742"
           ry="1.2096372" />
      </g>
    </g>
    <path
       style="fill:none;stroke:#000000;stroke-width:2.64581;stroke-linecap:round;stroke-linejoin:round;stroke-miterlimit:4;stroke-dasharray:none;paint-order:fill markers stroke"
       id="path858"
       sodipodi:type="arc"
       sodipodi:cx="135.80251"
       sodipodi:cy="11.188156"
       sodipodi:rx="14.981094"
       sodipodi:ry="18.470997"
       sodipodi:start="1.0471976"
       sodipodi:end="2.0943951"
       sodipodi:arc-type="arc"
       d="m 143.29305,27.184509 a 14.981094,18.470997 0 0 1 -14.98109,0"
       sodipodi:open="true" />
    <path
       style="display:inline;fill:#808080;stroke:#000000;stroke-width:2.12241;stroke-linecap:round;stroke-linejoin:round;stroke-miterlimit:4;stroke-dasharray:none;stroke-opacity:1"
       d="m 146.58996,7.5614245 4.88979,-2.8231232 V 39.647248 l -4.88979,2.823123 z"
       id="path874"
       sodipodi:nodetypes="ccccc" />
    <path
       style="display:inline;fill:#cccccc;stroke:#000000;stroke-width:2.12241;stroke-linecap:round;stroke-linejoin:round;stroke-miterlimit:4;stroke-dasharray:none;stroke-opacity:1"
       d="m 125.01504,7.5614245 h 21.57492 l 4.88979,-2.8231232 h -21.57492 z"
       id="path876"
       sodipodi:nodetypes="ccccc" />
  </g>
  <text
     xml:space="preserve"
     style="font-style:normal;font-weight:normal;font-size:9.70542px;line-height:1.05;font-family:sans-serif;letter-spacing:0px;word-spacing:0px;fill:#e6e6e6;fill-opacity:1;stroke:none;stroke-width:0.242635"
     x="7.8764124"
     y="12.894761"
     id="text1399"><tspan
       sodipodi:role="line"
       id="tspan1397"
       style="font-weight:bold;fill:#e6e6e6;stroke-width:0.242635"
       x="7.8764124"
       y="12.894761">Vibey</tspan><tspan
       sodipodi:role="line"
       style="font-weight:bold;fill:#e6e6e6;stroke-width:0.242635"
       x="7.8764124"
       y="23.085451"
       id="tspan1401">Transcribey</tspan><tspan
       sodipodi:role="line"
       style="font-weight:bold;fill:#e6e6e6;stroke-width:0.242635"
       x="7.8764124"
       y="33.276142"
       id="tspan1403">Trainer</tspan></text>
  <text
     xml:space="preserve"
     style="font-style:normal;font-weight:normal;font-size:6.16599px;line-height:1.25;font-family:sans-serif;letter-spacing:0px;word-spacing:0px;fill:#999999;fill-opacity:1;stroke:none;stroke-width:0.15415"
     x="9.2891579"
     y="41.31543"
     id="text1703"><tspan
       sodipodi:role="line"
       style="font-weight:normal;fill:#999999;stroke-width:0.15415"
       x="9.2891579"
       y="41.31543"
       id="tspan1701">Thank you for participating!</tspan></text>
</svg>
